<svg width="414" height="72" viewBox="0 0 414 72" fill="none" xmlns="http://www.w3.org/2000/svg">
<path d="M223.882 40.3872C223.882 29.5739 231.516 22.0703 242.199 22.0703C243.886 22.0703 245.85 22.2082 247.942 22.5408V28.2841C245.85 27.9434 244.089 27.8136 242.872 27.8136C235.101 27.8136 230.096 33.0215 230.096 40.3872C230.096 47.7528 235.101 52.8228 242.872 52.8228C244.089 52.8228 245.85 52.6849 247.942 52.4172V58.1605C245.85 58.5012 243.886 58.631 242.199 58.631C231.524 58.631 223.882 51.1274 223.882 40.3872Z" fill="#1D1D1D"/>
<path d="M251.317 40.3865C251.317 29.5732 259.291 21.6641 269.699 21.6641C280.107 21.6641 288.016 29.5732 288.016 40.3865C288.016 51.1998 280.042 58.9711 269.699 58.9711C259.356 58.9711 251.317 51.1349 251.317 40.3865ZM269.699 53.0899C276.594 53.0899 281.729 47.7522 281.729 40.3865C281.729 33.0208 276.594 27.5452 269.699 27.5452C262.804 27.5452 257.531 32.8829 257.531 40.3865C257.531 47.8901 262.739 53.0899 269.699 53.0899Z" fill="#1D1D1D"/>
<path d="M308.158 21.6641C316.943 21.6641 322.216 27.2775 322.216 36.7361V58.1599H315.994V36.9389C315.994 30.8549 313.22 27.5452 308.158 27.5452C303.096 27.5452 300.249 30.8549 300.249 36.9389V58.1599H294.027V36.7361C294.027 27.2775 299.235 21.6641 308.15 21.6641H308.158Z" fill="#1D1D1D"/>
<path d="M331.675 28.1586H327.351V22.4802H331.675V12.616L337.889 10.3203V22.4883H342.488V28.1667H337.889V58.1729H331.675V28.1667V28.1586Z" fill="#1D1D1D"/>
<path d="M358.841 22.4766H362.832V28.1549H359.385C355.596 28.1549 354.047 29.5745 354.047 33.6305V58.1612H347.825V33.6954C347.825 25.989 351.476 22.4766 358.841 22.4766Z" fill="#1D1D1D"/>
<path d="M364.244 40.3865C364.244 29.5732 372.218 21.6641 382.626 21.6641C393.034 21.6641 400.943 29.5732 400.943 40.3865C400.943 51.1998 392.969 58.9711 382.626 58.9711C372.283 58.9711 364.244 51.1349 364.244 40.3865ZM382.626 53.0899C389.521 53.0899 394.656 47.7522 394.656 40.3865C394.656 33.0208 389.521 27.5452 382.626 27.5452C375.731 27.5452 370.458 32.8829 370.458 40.3865C370.458 47.8901 375.666 53.0899 382.626 53.0899Z" fill="#1D1D1D"/>
<path d="M407.367 6.05469H413.589V58.1579H407.367V6.05469Z" fill="#1D1D1D"/>
<path d="M33.2186 71.6075V61.3215C33.2186 58.7662 33.2916 56.0812 33.4457 53.461C30.5092 56.8924 25.3094 58.969 19.7364 58.969C8.89073 58.969 0 51.3762 0 40.5548C0 29.7334 8.89073 22.1406 19.7364 22.1406C25.6906 22.1406 31.1094 24.4282 33.9 28.2571L33.973 22.8139H40.1462V71.6075H33.2186ZM20.6369 53.1933C27.8647 53.1933 33.8188 48.6911 33.8188 40.5548C33.8188 32.4185 27.8647 27.8515 20.6369 27.8515C12.7277 27.8515 7.00064 33.0918 7.00064 40.5548C7.00064 48.0179 12.7277 53.1933 20.6369 53.1933Z" fill="#1D1D1D"/>
<path d="M64.8552 59.1055C55.064 59.1055 49.1909 53.5245 49.1909 44.1146V22.8125H56.1186V43.9199C56.1186 49.9714 59.2092 53.2649 64.8552 53.2649C70.5011 53.2649 73.6648 49.9714 73.6648 43.9199V22.8125H80.5924V44.1146C80.5924 53.5245 74.7923 59.1055 64.847 59.1055H64.8552Z" fill="#1D1D1D"/>
<path d="M87.3745 40.5626C87.3745 29.7413 96.1841 22.1484 107.111 22.1484C113.065 22.1484 118.411 24.436 121.201 28.2L121.274 22.8217H127.529V58.3116H121.274L121.201 52.9334C118.411 56.6974 113.065 58.9849 107.111 58.9849C96.1922 58.9849 87.3745 51.3921 87.3745 40.5707V40.5626ZM107.865 53.2011C115.174 53.2011 121.12 48.699 121.12 40.5626C121.12 32.4263 115.166 27.8593 107.865 27.8593C100.11 27.8593 94.3103 33.0996 94.3103 40.5626C94.3103 48.0257 100.11 53.2011 107.865 53.2011Z" fill="#1D1D1D"/>
<path d="M167.366 40.6927C167.366 30.0741 175.802 22.1406 187.33 22.1406C197.421 22.1406 206.466 28.2571 206.239 41.366H173.847C174.221 48.3586 179.648 53.534 187.857 53.534C193.657 53.534 198.402 50.9787 201.339 46.6794L206.158 49.8349C202.694 54.6778 196.666 58.9771 187.776 58.9771C175.575 58.9771 167.358 51.1166 167.358 40.6927H167.366ZM199.457 36.726C198.175 30.4067 193.203 27.381 187.257 27.381C180.556 27.381 175.656 31.3477 174.229 36.726H199.465H199.457Z" fill="#1D1D1D"/>
<path d="M152.505 58.9741V6.92763L159.117 0.00811062L159.368 0V51.7869L152.505 58.9741Z" fill="#1D1D1D"/>
<path d="M136.581 61.1304V9.08388L143.192 2.16436L143.444 2.15625V53.9431L136.581 61.1304Z" fill="#1D1D1D"/>
</svg>
