<svg width="414" height="72" viewBox="0 0 414 72" fill="none" xmlns="http://www.w3.org/2000/svg">
  <path
    d="M223.883 40.3872C223.883 29.5739 231.516 22.0703 242.2 22.0703C243.887 22.0703 245.85 22.2082 247.943 22.5408V28.2841C245.85 27.9434 244.09 27.8136 242.873 27.8136C235.102 27.8136 230.097 33.0215 230.097 40.3872C230.097 47.7528 235.102 52.8228 242.873 52.8228C244.09 52.8228 245.85 52.6849 247.943 52.4172V58.1605C245.85 58.5012 243.887 58.631 242.2 58.631C231.524 58.631 223.883 51.1274 223.883 40.3872Z"
    fill="#1D1D1D" />
  <path
    d="M251.317 40.3865C251.317 29.5732 259.291 21.6641 269.699 21.6641C280.107 21.6641 288.016 29.5732 288.016 40.3865C288.016 51.1998 280.042 58.9711 269.699 58.9711C259.356 58.9711 251.317 51.1349 251.317 40.3865ZM269.699 53.0899C276.594 53.0899 281.729 47.7522 281.729 40.3865C281.729 33.0208 276.594 27.5452 269.699 27.5452C262.804 27.5452 257.531 32.8829 257.531 40.3865C257.531 47.8901 262.739 53.0899 269.699 53.0899Z"
    fill="#1D1D1D" />
  <path
    d="M308.158 21.6641C316.944 21.6641 322.216 27.2775 322.216 36.7361V58.1599H315.995V36.9389C315.995 30.8549 313.22 27.5452 308.158 27.5452C303.097 27.5452 300.249 30.8549 300.249 36.9389V58.1599H294.027V36.7361C294.027 27.2775 299.235 21.6641 308.15 21.6641H308.158Z"
    fill="#1D1D1D" />
  <path
    d="M331.674 28.1547H327.351V22.4763H331.674V12.6121L337.888 10.3164V22.4844H342.488V28.1628H337.888V58.169H331.674V28.1628V28.1547Z"
    fill="#1D1D1D" />
  <path
    d="M358.841 22.4805H362.832V28.1589H359.385C355.596 28.1589 354.047 29.5785 354.047 33.6344V58.1651H347.825V33.6993C347.825 25.993 351.476 22.4805 358.841 22.4805Z"
    fill="#1D1D1D" />
  <path
    d="M364.244 40.3865C364.244 29.5732 372.218 21.6641 382.626 21.6641C393.034 21.6641 400.943 29.5732 400.943 40.3865C400.943 51.1998 392.969 58.9711 382.626 58.9711C372.283 58.9711 364.244 51.1349 364.244 40.3865ZM382.626 53.0899C389.521 53.0899 394.656 47.7522 394.656 40.3865C394.656 33.0208 389.521 27.5452 382.626 27.5452C375.731 27.5452 370.458 32.8829 370.458 40.3865C370.458 47.8901 375.666 53.0899 382.626 53.0899Z"
    fill="#1D1D1D" />
  <path d="M407.367 6.05078H413.589V58.154H407.367V6.05078Z" fill="#1D1D1D" />
  <path
    d="M33.2186 71.6036V61.3176C33.2186 58.7623 33.2916 56.0773 33.4457 53.4571C30.5092 56.8885 25.3094 58.9651 19.7364 58.9651C8.89073 58.9651 0 51.3723 0 40.5509C0 29.7295 8.89073 22.1367 19.7364 22.1367C25.6906 22.1367 31.1094 24.4243 33.9 28.2532L33.973 22.81H40.1462V71.6036H33.2186ZM20.6369 53.1894C27.8647 53.1894 33.8188 48.6872 33.8188 40.5509C33.8188 32.4146 27.8647 27.8476 20.6369 27.8476C12.7277 27.8476 7.00064 33.0879 7.00064 40.5509C7.00064 48.0139 12.7277 53.1894 20.6369 53.1894Z"
    fill="#1D1D1D" />
  <path
    d="M64.8556 59.1055C55.0645 59.1055 49.1914 53.5245 49.1914 44.1146V22.8125H56.119V43.9199C56.119 49.9714 59.2097 53.2649 64.8556 53.2649C70.5016 53.2649 73.6653 49.9714 73.6653 43.9199V22.8125H80.5929V44.1146C80.5929 53.5245 74.7928 59.1055 64.8475 59.1055H64.8556Z"
    fill="#1D1D1D" />
  <path
    d="M87.374 40.5587C87.374 29.7373 96.1836 22.1445 107.11 22.1445C113.065 22.1445 118.41 24.4321 121.201 28.1961L121.274 22.8178H127.528V58.3077H121.274L121.201 52.9295C118.41 56.6935 113.065 58.981 107.11 58.981C96.1917 58.981 87.374 51.3882 87.374 40.5668V40.5587ZM107.865 53.1972C115.174 53.1972 121.12 48.695 121.12 40.5587C121.12 32.4224 115.166 27.8554 107.865 27.8554C100.11 27.8554 94.3098 33.0957 94.3098 40.5587C94.3098 48.0218 100.11 53.1972 107.865 53.1972Z"
    fill="#1D1D1D" />
  <path
    d="M167.367 40.6888C167.367 30.0702 175.803 22.1367 187.33 22.1367C197.421 22.1367 206.466 28.2532 206.239 41.3621H173.848C174.221 48.3546 179.648 53.5301 187.857 53.5301C193.657 53.5301 198.403 50.9748 201.339 46.6755L206.158 49.831C202.694 54.6739 196.667 58.9732 187.776 58.9732C175.576 58.9732 167.358 51.1127 167.358 40.6888H167.367ZM199.458 36.7221C198.176 30.4028 193.203 27.3771 187.257 27.3771C180.557 27.3771 175.657 31.3438 174.229 36.7221H199.466H199.458Z"
    fill="#1D1D1D" />
  <path d="M152.505 58.9741V6.92763L159.116 0.00811062L159.368 0V51.7869L152.505 58.9741Z"
    fill="#1D1D1D" />
  <path d="M136.581 61.1264V9.07998L143.192 2.16046L143.444 2.15234V53.9392L136.581 61.1264Z"
    fill="#1D1D1D" />
</svg>
  